<svg width="82" height="82" viewBox="0 0 82 82" fill="none" xmlns="http://www.w3.org/2000/svg">
<path d="M82 41C82 63.6437 63.6437 82 41 82C18.3563 82 0 63.6437 0 41C0 18.3563 18.3563 0 41 0C63.6437 0 82 18.3563 82 41Z" fill="#545454"/>
<path d="M25.2308 38.6635L40.7847 25.8254C41.265 25.4289 41.5051 25.2307 41.7885 25.2307C42.0718 25.2307 42.312 25.4289 42.7923 25.8254L58.3462 38.6635M25.2308 56.5353L40.7847 43.6971C41.265 43.3007 41.5051 43.1025 41.7885 43.1025C42.0718 43.1025 42.312 43.3007 42.7923 43.6971L58.3462 56.5353" stroke="#FAFAFA" stroke-width="4" stroke-linecap="round" stroke-linejoin="round"/>
</svg>
