<svg width="44" height="44" viewBox="0 0 44 44" fill="none" xmlns="http://www.w3.org/2000/svg">
<path d="M12.0589 28.3829C9.46514 29.9273 2.6645 33.0808 6.80655 37.027C8.8299 38.9547 11.0834 40.3333 13.9166 40.3333H30.0834C32.9166 40.3333 35.1701 38.9547 37.1935 37.027C41.3355 33.0808 34.5349 29.9273 31.9411 28.3829C25.8588 24.7612 18.1412 24.7612 12.0589 28.3829Z" stroke="#2A353D" stroke-width="4" stroke-linecap="round" stroke-linejoin="round"/>
<path d="M30.25 11.9166C30.25 16.473 26.5563 20.1666 22 20.1666C17.4437 20.1666 13.75 16.473 13.75 11.9166C13.75 7.36028 17.4437 3.66663 22 3.66663C26.5563 3.66663 30.25 7.36028 30.25 11.9166Z" stroke="#2A353D" stroke-width="4"/>
</svg>
